<svg width="18" height="18" viewBox="0 0 18 18" fill="none" xmlns="http://www.w3.org/2000/svg">
<path d="M0.666626 3.16675L6.49996 0.666748L11.5 3.16675L16.7525 0.915915C16.8159 0.888734 16.885 0.877722 16.9537 0.883867C17.0224 0.890011 17.0886 0.91312 17.1461 0.951119C17.2037 0.989118 17.251 1.04082 17.2836 1.10158C17.3163 1.16234 17.3334 1.23026 17.3333 1.29925V14.8334L11.5 17.3334L6.49996 14.8334L1.24746 17.0842C1.18405 17.1114 1.11489 17.1224 1.04618 17.1163C0.977469 17.1102 0.911359 17.087 0.853782 17.049C0.796205 17.011 0.748964 16.9593 0.716298 16.8986C0.683633 16.8378 0.666565 16.7699 0.666626 16.7009V3.16675ZM12.3333 15.1626L15.6666 13.7342V3.19425L12.3333 4.62258V15.1626ZM10.6666 15.0534V4.61341L7.33329 2.94675V13.3867L10.6666 15.0534ZM5.66663 13.3776V2.83758L2.33329 4.26591V14.8059L5.66663 13.3776Z" fill="#C69852"/>
</svg>
