<svg width="192" height="151" viewBox="0 0 192 151" fill="none" xmlns="http://www.w3.org/2000/svg">
<g clip-path="url(#clip0_20_305)">
<path d="M192 114.865V36.1435H180.334C176.249 36.1435 174.246 36.1435 173.42 33.3078C173.257 32.7127 173.171 32.0989 173.165 31.4818L172.919 21.658H151.168C149.764 21.6589 148.411 21.1289 147.382 20.1743C133.413 7.23146 115.067 0.039978 96.0176 0.039978C76.9683 0.039978 58.6222 7.23146 44.653 20.1743C43.4892 21.244 41.9648 21.8365 40.3836 21.8336H20.451V32.3158C20.4486 33.3372 20.0416 34.3162 19.3188 35.0384C18.5961 35.7607 17.6165 36.1675 16.5944 36.1698H0V114.892H16.5944C17.6127 114.892 18.5896 115.294 19.3121 116.011C20.0346 116.728 20.444 117.702 20.451 118.719V131.01H42.3514C43.8633 131.002 45.3269 131.542 46.4715 132.529C60.2139 144.452 77.8011 151.017 96 151.017C114.199 151.017 131.786 144.452 145.529 132.529C146.673 131.542 148.137 131.002 149.649 131.01H172.919V118.719C172.918 118.213 173.017 117.711 173.211 117.243C173.404 116.775 173.688 116.35 174.046 115.992C174.405 115.634 174.83 115.35 175.299 115.156C175.767 114.963 176.269 114.864 176.776 114.865H191.271" fill="white"/>
<path d="M177.347 42.675C171.242 42.7716 167.438 38.0572 167.438 34.3964V26.7059H148.647C146.572 26.6229 144.575 25.8922 142.937 24.6165C126.149 12.6594 117.066 6.58429 95.3236 6.58429C78.896 6.58429 61.388 14.8191 49.713 24.6165C47.8454 26.0423 45.5788 26.8495 43.2299 26.9254H26.9165V35.3533C26.9177 36.2245 26.747 37.0873 26.4142 37.8925C26.0814 38.6977 25.593 39.4294 24.977 40.0458C24.361 40.6622 23.6295 41.1512 22.8242 41.4849C22.019 41.8185 21.1558 41.9903 20.284 41.9903H8.74963V109.589H20.284C21.155 109.589 22.0175 109.761 22.8222 110.094C23.6269 110.427 24.358 110.915 24.9739 111.53C25.5898 112.146 26.0784 112.877 26.4117 113.681C26.745 114.485 26.9165 115.347 26.9165 116.217V123.908H45.1977C47.2915 123.914 49.3163 124.657 50.9165 126.006C62.5827 135.795 79.5725 144.442 96 144.442C112.428 144.442 130.322 135.839 141.988 126.006C143.768 124.521 146.013 123.707 148.331 123.706H163.731V116.726C163.706 115.121 164.122 113.539 164.934 112.153C167.025 108.72 170.328 109.291 176.152 109.133H183.25V42.675H177.347Z" stroke="#25224D" stroke-width="3" stroke-linecap="round" stroke-linejoin="round"/>
<path d="M69.2328 67.3091L70.3748 66.2556C72.1318 64.614 73.4583 63.3234 74.3456 62.3841C75.244 61.4167 76.0038 60.3295 76.6032 59.1534C77.2936 57.7368 77.79 56.2338 78.0791 54.6848C78.2946 53.6955 78.4036 52.6861 78.4041 51.6736C78.4451 50.7837 78.3352 49.8932 78.0791 49.0399C77.9136 48.0601 77.5745 47.1176 77.0776 46.2569C76.174 44.582 74.8741 43.1534 73.2914 42.0956C71.1557 40.6931 68.8184 39.6244 66.3602 38.9264L57.9707 45.9496C57.8082 45.0809 57.5336 44.2369 57.1537 43.4388C56.7171 42.5279 56.1222 41.7016 55.3968 40.9983C54.593 40.243 53.7325 39.5504 52.8229 38.9264L51.9444 40.0238C49.8097 42.5697 48.5359 44.0622 48.1142 44.4835C48.7094 44.822 49.279 45.2034 49.8185 45.6248C50.2865 46.0472 50.7212 46.5051 51.1186 46.9944C51.6684 47.6418 52.0861 48.3903 52.3485 49.1979C52.5618 50.1036 52.6563 51.0332 52.6296 51.9633V61.6203C52.4451 61.8047 51.5578 62.6211 49.9942 64.0784C48.7204 65.3602 47.9034 66.1942 47.5344 66.5892L48.2196 67.4145C49.2565 66.8139 50.4388 66.5101 51.6369 66.5366C51.8033 66.5176 51.9713 66.5176 52.1376 66.5366C52.3054 66.5697 52.4762 66.5844 52.6472 66.5805C52.6472 71.1105 53.0513 84.2352 53.877 86.5353C54.1904 87.41 54.5541 88.266 54.9663 89.0988C55.5198 88.0629 55.9415 87.2113 56.2489 86.5353C56.7869 85.2829 57.1989 83.9801 57.4788 82.6462C57.7248 81.4171 57.9532 70.0745 58.164 68.0378C60.6327 68.8562 62.979 70.005 65.1391 71.4529C67.0542 69.3868 68.4363 67.9617 69.2855 67.1775L69.2328 67.3091ZM64.8141 64.7105C61.4759 63.3761 59.2738 62.466 58.2079 61.9802V47.3806C58.9969 46.6033 59.8827 45.9306 60.8434 45.379C61.7747 44.9011 62.8012 44.6371 63.8478 44.6065C66.1702 44.5913 68.4266 45.3791 70.2343 46.8363C71.4748 47.8353 72.4344 49.1391 73.0191 50.6201C73.5876 52.0554 73.8653 53.5892 73.836 55.1326C73.8845 57.3627 73.4562 59.5775 72.5798 61.6291C72.0309 63.1373 71.0194 64.4339 69.6896 65.3338C69.2735 65.5756 68.8006 65.7029 68.3192 65.7026C67.1252 65.5845 65.9556 65.2886 64.8492 64.8247" fill="#25224D"/>
<path d="M86.0117 69.4424C86.8601 69.9986 87.5645 70.7477 88.0673 71.6284C91.5812 69.4102 94.3484 67.7686 96.3689 66.7034C98.1931 65.598 99.5279 63.8403 100.102 61.7871C100.279 61.0715 100.374 60.3381 100.384 59.6011C100.378 58.2209 100.047 56.8614 99.4173 55.633C98.797 54.3913 97.9337 53.2868 96.8785 52.3847C96.5095 52.0511 95.9209 51.577 95.1215 50.9713C94.1794 50.2493 93.3348 49.4082 92.6091 48.4692C91.3712 49.4664 90.0244 50.3205 88.5944 51.0152C87.1892 51.6546 85.8197 52.3697 84.4919 53.1573C83.3138 53.9627 82.3522 55.0454 81.6919 56.3101C81.0315 57.5747 80.6929 58.9824 80.7057 60.4088C80.7127 61.8025 81.0127 63.1792 81.5863 64.4496C82.1598 65.7199 82.9941 66.8557 84.0351 67.7832C84.6673 68.3886 85.3362 68.9544 86.038 69.4776L86.0117 69.4424ZM87.7247 53.1134C88.9009 53.0527 90.0644 53.3796 91.0366 54.044C92.2284 54.8064 93.2902 55.7549 94.1815 56.8533C95.0739 57.9106 95.805 59.094 96.3514 60.3649C96.6485 61.0433 96.8039 61.7752 96.8082 62.5157C96.8678 63.7035 96.4825 64.871 95.7276 65.7903C95.3835 66.1931 94.9527 66.5129 94.4674 66.7258C93.9821 66.9386 93.4549 67.039 92.9253 67.0194C91.6941 66.9933 90.5009 66.5887 89.508 65.8606C88.3535 65.0557 87.3436 64.0613 86.5212 62.9196C85.7169 61.8516 85.0801 60.6675 84.6325 59.408C84.346 58.6041 84.1917 57.7591 84.1757 56.9059C84.1757 54.6 85.347 53.3387 87.6896 53.1221" fill="#25224D"/>
<path d="M107.763 69.9429C108.712 70.5749 109.467 71.0929 110.047 71.488C111.505 70.3642 112.767 69.4688 113.833 68.8016C115.531 67.7516 117.092 66.4954 118.48 65.0617C119.146 64.265 119.532 63.2718 119.578 62.2348C119.564 61.5458 119.373 60.8719 119.025 60.2771C118.722 59.6795 118.315 59.1412 117.821 58.6881C117.099 58.0647 116.346 57.4787 115.564 56.9323L114.685 56.3002L119.429 50.9625L118.7 50.2865C118.251 50.8081 117.625 51.1457 116.943 51.2347C116.18 51.1659 115.44 50.9355 114.773 50.5587C114.146 50.3001 113.555 49.9607 113.016 49.5491C112.591 49.2671 112.189 48.9531 111.813 48.6097C110.75 49.4876 109.59 50.4094 108.351 51.3488C106.925 52.4272 105.605 53.6383 104.407 54.9658C103.594 55.7793 103.098 56.8567 103.01 58.0033C103.004 58.5463 103.121 59.0837 103.353 59.5748C103.665 60.1554 104.076 60.678 104.565 61.1199C105.136 61.6817 105.505 61.9978 105.654 62.147C106.13 62.5545 106.573 62.9977 106.981 63.4727L102.694 68.3451C104.499 68.461 106.249 69.009 107.798 69.9429H107.763ZM115.142 62.4192C115.481 62.6532 115.758 62.9669 115.948 63.3327C116.138 63.6985 116.235 64.1053 116.231 64.5174C116.216 65.1555 115.994 65.7715 115.599 66.2732C115.317 66.5503 114.982 66.7665 114.613 66.9085C114.244 67.0505 113.85 67.1151 113.455 67.0984C112.28 66.9681 111.138 66.6291 110.082 66.0976L107.113 64.8159L110.952 60.5405C112.428 60.9641 113.838 61.5904 115.142 62.4016V62.4192ZM106.937 56.3441C106.686 55.9297 106.544 55.4585 106.524 54.9745C106.535 54.6943 106.601 54.4189 106.718 54.1642C106.836 53.9096 107.003 53.6807 107.209 53.4909C107.448 53.2549 107.732 53.0706 108.045 52.9498C108.358 52.8289 108.693 52.774 109.028 52.7886C110.171 52.869 111.274 53.2473 112.225 53.8859C112.924 54.3331 113.655 54.7264 114.413 55.0623L112.182 57.6961L110.591 59.408C108.492 58.0209 107.262 57.0113 106.902 56.4055" fill="#25224D"/>
<path d="M124.225 62.147C124.242 62.8781 124.198 63.6092 124.094 64.333C124.007 64.8013 123.818 65.2449 123.54 65.6323C123.113 66.1685 122.624 66.6518 122.082 67.0721C123.341 67.6357 124.554 68.2961 125.71 69.0474C126.804 69.8732 127.832 70.7832 128.785 71.7689C129.427 71.0118 130.113 70.2936 130.84 69.618C131.326 69.1966 132.346 68.3772 133.898 67.1599L136.041 65.4743L135.4 64.6578L131.754 67.3881L128.881 65.3426V53.3065H135.215L135.716 49.751H128.881V43.0964H128.152C128.152 43.1579 127.889 43.6583 127.467 44.6064L127.01 45.4843C125.911 47.6294 124.512 49.607 122.855 51.3575L120.597 53.3065H124.287L124.225 62.147Z" fill="#25224D"/>
<path d="M119.007 102.206C118.665 101.372 118.515 100.472 118.568 99.5722V85.4379C116.53 86.3773 115.001 87.062 113.965 87.4922V101.618L112.823 102.434C112.427 102.768 111.76 103.251 110.82 103.892L108.123 101.706V90.8107C108.123 88.6598 107.78 87.0884 107.078 86.1227C106.896 85.912 106.603 85.6193 106.199 85.2448C104.223 86.6476 102.134 87.8838 99.9531 88.9407L100.454 89.8977L102.097 89.1163C102.491 89.3153 102.822 89.6191 103.054 89.9942C103.477 90.9227 103.65 91.9457 103.555 92.9616V98.229C103.555 100.108 103.221 101.433 102.553 102.188C102.183 102.642 101.738 103.028 101.236 103.33C103.359 104.674 105.292 106.298 106.981 108.158C109.195 106.367 111.505 104.611 113.912 102.891C113.912 104.84 114.351 106.218 115.142 107.043C115.642 107.53 116.21 107.941 116.829 108.263C117.804 107.175 119.209 105.744 121.072 103.988C120.241 103.576 119.54 102.944 119.042 102.162" fill="#25224D"/>
<path d="M138.817 87.1674C138.176 86.5353 137.324 85.7891 136.261 84.9375C133.526 87.0035 131.247 88.6452 129.426 89.8626L129.382 82.1106C129.363 81.2282 129.431 80.3461 129.584 79.4769C129.758 78.7528 130.118 78.0869 130.63 77.5455C131.39 76.7597 132.282 76.1121 133.265 75.6317L132.852 74.666C129.684 76.3405 126.208 77.3503 122.635 77.6333L122.548 78.5902C123.176 78.6955 123.753 79.0039 124.19 79.4681C124.533 79.9909 124.722 80.5993 124.735 81.224V98.7294C124.82 100.148 124.365 101.547 123.461 102.645C123.021 103.139 122.512 103.568 121.95 103.918C124.616 104.577 127.138 105.72 129.391 107.289C129.997 107.746 130.392 108.07 130.577 108.246L133.449 106.49C135.96 104.871 138.173 102.834 139.994 100.468C141.616 98.2905 142.428 96.3181 142.428 94.5506C142.428 91.9988 141.212 89.5524 138.782 87.2113L138.817 87.1674ZM136.454 102.206C135.941 103.007 135.33 103.742 134.635 104.392L129.365 101.433V91.0828L132.738 88.853C133.583 89.5212 134.389 90.2363 135.154 90.995C137.069 93.0318 138.026 95.0802 138.026 97.1404C138.004 98.9331 137.448 100.679 136.428 102.153" fill="#25224D"/>
<path d="M97.2738 82.8393C96.3681 81.1635 95.0688 79.7325 93.4875 78.6692C91.356 77.265 89.0213 76.1961 86.5651 75.5L78.1669 82.5233C78.001 81.6554 77.7265 80.8118 77.3499 80.0124C76.9111 79.1028 76.3165 78.2769 75.593 77.5719C74.7869 76.8192 73.9266 76.1267 73.019 75.5L72.1405 76.5974C70.0146 79.1521 68.732 80.6358 68.3104 81.0659C68.9106 81.4006 69.4834 81.7822 70.0234 82.2072C70.4895 82.6284 70.9241 83.0832 71.3236 83.568C71.8673 84.2228 72.2844 84.973 72.5534 85.7803C72.7637 86.6834 72.8553 87.6101 72.8258 88.5369V98.2466C72.6413 98.4222 71.7628 99.2474 70.1903 100.705C68.9077 101.978 68.0908 102.82 67.7218 103.207L68.407 104.032C69.4469 103.431 70.6321 103.127 71.8331 103.154C72.0009 103.155 72.1684 103.17 72.3338 103.198C72.4981 103.235 72.6662 103.252 72.8345 103.251C72.8345 107.772 73.2474 120.897 74.0644 123.205C74.3816 124.077 74.7482 124.93 75.1625 125.76C75.7072 124.724 76.1288 123.873 76.4363 123.205C76.9783 121.952 77.3904 120.645 77.6662 119.308C77.9121 118.078 78.1405 106.745 78.3514 104.708C80.823 105.519 83.1704 106.668 85.3265 108.123C87.2416 106.057 88.6266 104.629 89.4817 103.839L90.6149 102.794C92.3719 101.152 93.6984 99.8619 94.5856 98.9138C95.4864 97.9482 96.2464 96.8607 96.8433 95.6831C97.5331 94.2655 98.0323 92.7629 98.328 91.2145C98.5405 90.2279 98.6466 89.2213 98.6442 88.2121C98.6881 87.3226 98.5811 86.4322 98.328 85.5784C98.1574 84.5986 97.8155 83.6565 97.3177 82.7954L97.2738 82.8393ZM92.7408 98.1763C92.1917 99.6894 91.1768 100.989 89.8419 101.89C89.4265 102.133 88.9526 102.257 88.4714 102.25C87.28 102.133 86.1132 101.837 85.0102 101.372C81.6632 100.029 79.4583 99.1245 78.3953 98.6416V83.9894C79.1817 83.2066 80.0678 82.5306 81.0307 81.979C81.9673 81.5065 82.9954 81.2429 84.0439 81.2064C86.364 81.1896 88.6181 81.9777 90.4217 83.4363C91.1024 83.9801 91.695 84.6256 92.1786 85.3501C92.5976 85.924 92.9347 86.5533 93.1801 87.2201C93.7486 88.6553 94.0264 90.1891 93.9971 91.7325C94.0445 93.9617 93.6194 96.1757 92.7496 98.229" fill="#25224D"/>
</g>
<defs>
<clipPath id="clip0_20_305">
<rect width="192" height="151" fill="white"/>
</clipPath>
</defs>
</svg>
