<svg width="31" height="31" viewBox="0 0 31 31" fill="none" xmlns="http://www.w3.org/2000/svg">
<circle cx="15.5" cy="15.5" r="15" stroke="#C69852"/>
<path d="M20.0537 11.2271C20.647 11.8972 21.071 12.7247 21.2782 13.6169C21.4853 14.5092 21.4673 15.4308 21.2263 16.2787L19.8187 15.6942C19.9798 15.129 19.992 14.5144 19.8542 13.9194C19.7163 13.3243 19.4337 12.7724 19.0381 12.3255C18.6426 11.8785 18.1496 11.5542 17.6146 11.389C17.0796 11.2237 16.5236 11.224 16.0091 11.3899L15.5116 9.82186C16.2833 9.57368 17.117 9.5737 17.9193 9.8219C18.7216 10.0701 19.4606 10.5567 20.0537 11.2271ZM22.0859 9.0279C23.0748 10.1447 23.7813 11.5239 24.1264 13.0109C24.4715 14.4979 24.4415 16.034 24.0397 17.4469L22.6328 16.8631C22.9542 15.7327 22.9783 14.5038 22.7022 13.3141C22.4262 12.1244 21.8609 11.021 21.0698 10.1275C20.279 9.23366 19.2935 8.58497 18.2238 8.25413C17.1541 7.9233 16.0425 7.92339 15.0135 8.25441L14.5154 6.6858C15.8017 6.27209 17.1913 6.27208 18.5285 6.68575C19.8657 7.09943 21.0975 7.91045 22.0859 9.0279Z" fill="#C69852"/>
<g clip-path="url(#clip0_83_91)">
<path d="M22.2337 20.6505V23.6266C22.2338 23.8397 22.1531 24.0449 22.0078 24.2008C21.8625 24.3567 21.6635 24.4517 21.451 24.4666C21.0832 24.4918 20.7827 24.5053 20.5504 24.5053C13.1127 24.5053 7.08386 18.4765 7.08386 11.0388C7.08386 10.8065 7.09649 10.506 7.12258 10.1382C7.13749 9.92564 7.23248 9.72665 7.38838 9.58138C7.54427 9.43611 7.74946 9.35537 7.96255 9.35547H10.9387C11.0431 9.35536 11.1438 9.39407 11.2212 9.46406C11.2987 9.53405 11.3474 9.63034 11.3578 9.73421C11.3772 9.9278 11.3948 10.0818 11.4117 10.1988C11.5789 11.3661 11.9217 12.5014 12.4284 13.5663C12.5083 13.7346 12.4562 13.9358 12.3047 14.0435L10.4884 15.3413C11.5989 17.929 13.661 19.9911 16.2487 21.1016L17.5448 19.2887C17.5978 19.2146 17.6751 19.1615 17.7632 19.1386C17.8514 19.1157 17.9447 19.1244 18.0271 19.1633C19.0918 19.669 20.2268 20.011 21.3937 20.1775C21.5107 20.1943 21.6647 20.2129 21.8566 20.2314C21.9604 20.242 22.0564 20.2908 22.1263 20.3682C22.1961 20.4456 22.2347 20.5462 22.2345 20.6505H22.2337Z" fill="#C69852"/>
</g>
<defs>
<clipPath id="clip0_83_91">
<rect width="20.1998" height="20.1998" fill="white" transform="translate(4.55884 6.83051)"/>
</clipPath>
</defs>
</svg>
